<?xml version="1.0" standalone="no"?>
<!DOCTYPE svg PUBLIC "-//W3C//DTD SVG 20010904//EN"
 "http://www.w3.org/TR/2001/REC-SVG-20010904/DTD/svg10.dtd">
<svg version="1.0" xmlns="http://www.w3.org/2000/svg"
 width="1500.000000pt" height="500.000000pt" viewBox="0 0 1500.000000 500.000000"
 preserveAspectRatio="xMidYMid meet">

<g transform="translate(0.000000,500.000000) scale(0.100000,-0.100000)"
fill="#006402" stroke="#FFFFFF">
<path d="M0 2500 l0 -2500 7500 0 7500 0 0 2500 0 2500 -7500 0 -7500 0 0
-2500z m12226 1572 c31 -21 22 -43 -62 -138 -135 -154 -192 -277 -214 -458
-21 -181 22 -399 108 -544 22 -37 69 -99 105 -137 82 -90 91 -105 71 -133 -8
-12 -23 -22 -33 -22 -54 0 -186 147 -258 285 -70 136 -103 283 -103 459 0 223
70 408 223 587 74 87 132 123 163 101z m1437 -16 c77 -52 161 -163 222 -291
105 -221 124 -497 49 -717 -65 -192 -236 -408 -323 -408 -18 0 -41 26 -41 45
0 3 31 38 68 78 84 89 124 147 167 240 58 128 79 268 64 426 -19 202 -85 355
-209 488 -55 58 -90 103 -90 114 0 12 37 49 49 49 4 0 24 -11 44 -24z m-12056
-22 c46 -23 63 -38 81 -74 37 -74 24 -150 -27 -150 -24 0 -44 24 -69 83 -25
56 -63 77 -142 77 -115 0 -160 -48 -160 -171 l0 -77 118 -3 c127 -4 152 -13
152 -54 0 -38 -20 -44 -148 -47 l-122 -3 -3 -343 c-2 -292 -4 -344 -17 -352
-22 -14 -56 -12 -68 3 -8 9 -12 123 -12 350 l-1 337 -62 0 c-75 0 -111 16
-115 51 -4 37 15 48 93 51 l70 3 6 95 c7 107 23 152 71 199 46 45 105 61 210
58 73 -3 96 -8 145 -33z m5407 14 c14 -20 16 -90 16 -568 0 -411 -3 -549 -12
-558 -33 -33 -78 -2 -78 52 0 14 -2 26 -5 26 -2 0 -26 -14 -52 -30 -100 -64
-241 -78 -369 -39 -83 26 -155 90 -173 154 -15 54 -14 416 1 466 6 22 26 56
43 77 103 119 359 136 504 32 16 -11 32 -20 35 -20 3 0 6 87 6 193 0 205 7
237 50 237 10 0 26 -10 34 -22z m-1983 -42 c87 -19 139 -46 181 -96 40 -46 58
-97 58 -163 0 -42 -18 -77 -38 -77 -23 0 -52 37 -72 92 -34 93 -77 132 -164
147 -135 24 -239 -10 -291 -94 l-30 -48 -3 -279 c-3 -231 0 -288 13 -333 31
-110 127 -163 275 -152 129 8 184 50 210 158 14 57 31 74 65 65 33 -8 41 -45
27 -115 -30 -140 -169 -219 -367 -208 -146 8 -239 54 -288 144 -43 80 -49 143
-45 448 5 313 9 338 75 414 79 93 234 131 394 97z m3534 4 c162 -24 265 -127
265 -267 0 -32 -28 -73 -50 -73 -20 0 -49 40 -60 81 -32 118 -98 162 -241 162
-71 0 -95 -4 -135 -24 -109 -54 -129 -132 -122 -478 6 -255 15 -299 74 -350
93 -83 308 -80 382 3 31 35 33 39 52 113 8 33 17 44 36 49 87 22 72 -165 -19
-242 -18 -15 -57 -39 -87 -53 -50 -24 -66 -26 -180 -26 -117 0 -129 2 -188 29
-70 32 -107 69 -143 142 -24 48 -24 55 -27 354 -4 345 3 394 64 474 69 90 211
130 379 106z m4272 -51 c102 -49 142 -113 178 -286 13 -63 29 -121 36 -129 15
-19 54 -18 73 2 21 21 20 50 -4 103 -24 52 -24 51 -5 51 27 0 133 -118 164
-183 77 -156 59 -346 -45 -482 -39 -51 -143 -118 -160 -104 -11 9 -5 21 34 64
65 71 90 145 73 221 -13 59 -48 117 -73 122 -13 3 -14 -3 -5 -44 10 -41 9 -48
-8 -60 -25 -19 -64 -18 -87 3 -14 13 -18 31 -18 93 0 88 -20 129 -78 163 -41
24 -51 16 -29 -22 37 -63 17 -117 -74 -199 -72 -66 -89 -96 -89 -160 0 -90 42
-169 106 -199 40 -20 45 -38 8 -29 -106 27 -226 132 -263 230 -28 77 -30 174
-3 236 11 25 58 110 106 189 47 79 90 160 96 180 25 89 2 184 -55 229 -29 23
-32 39 -7 45 27 7 62 -3 129 -34z m-10336 -252 c51 -28 88 -90 91 -154 1 -48
-14 -73 -48 -73 -19 0 -27 10 -45 60 -25 70 -48 90 -102 90 -54 0 -98 -23
-151 -80 l-46 -49 0 -235 0 -234 116 -4 c101 -3 117 -5 130 -22 15 -21 10 -55
-10 -68 -6 -4 -127 -8 -268 -8 -250 0 -257 1 -272 21 -8 12 -12 29 -9 38 12
33 36 41 125 41 l88 0 0 293 0 292 -68 -3 c-97 -5 -136 7 -140 42 -6 51 8 56
154 56 122 0 134 -2 144 -19 5 -11 10 -29 10 -40 0 -18 6 -16 53 19 85 65 170
78 248 37z m3387 13 c126 -16 206 -64 243 -145 16 -35 19 -67 19 -250 0 -118
-5 -227 -11 -248 -14 -53 -69 -110 -132 -138 -47 -22 -65 -24 -207 -24 -147 0
-158 1 -210 26 -134 64 -153 115 -148 402 3 201 3 202 31 250 45 76 108 108
257 131 46 6 84 5 158 -4z m3626 -10 c50 -15 118 -84 134 -136 8 -27 12 -116
12 -260 0 -121 5 -235 10 -254 7 -25 20 -41 47 -55 63 -33 54 -104 -11 -91
-60 12 -117 39 -129 62 l-12 23 -55 -35 c-70 -44 -107 -54 -201 -54 -190 0
-299 86 -299 235 0 103 55 182 157 227 84 37 237 33 356 -8 l39 -14 -4 94 c-3
89 -5 97 -33 126 -43 44 -118 64 -225 58 -125 -8 -169 -35 -191 -121 -14 -57
-39 -76 -75 -56 -20 10 -24 20 -24 63 0 103 73 174 215 210 35 9 248 -1 289
-14z m425 -6 c12 -15 21 -33 21 -40 0 -19 4 -18 40 16 67 62 157 62 225 -1
l42 -39 28 30 c84 88 262 74 309 -24 14 -29 16 -82 16 -373 0 -356 -1 -363
-44 -363 -51 1 -51 -3 -56 342 -3 178 -9 330 -13 339 -10 20 -50 39 -83 39
-31 0 -61 -15 -96 -48 l-28 -26 0 -287 c0 -157 -3 -301 -6 -318 -5 -22 -14
-33 -32 -38 -57 -14 -57 -14 -62 330 -5 299 -6 317 -26 343 -42 57 -100 56
-164 -2 l-40 -36 0 -303 c0 -328 -1 -335 -54 -335 -46 0 -46 2 -46 410 0 391
2 410 36 410 7 0 22 -12 33 -26z m900 16 c10 -5 24 -23 31 -40 7 -16 16 -30
20 -30 4 0 28 11 53 25 64 36 177 58 259 51 135 -12 215 -57 254 -141 23 -47
24 -61 24 -259 0 -245 -6 -272 -70 -336 -64 -65 -128 -83 -268 -78 -110 4
-113 4 -254 76 -5 2 -8 -84 -8 -192 0 -189 -1 -196 -21 -207 -36 -19 -67 2
-74 53 -3 24 -5 271 -3 549 2 411 6 509 17 522 16 20 17 20 40 7z m-7524 -32
c69 -36 102 -69 131 -133 34 -73 44 -193 20 -229 l-16 -26 -288 -2 -287 -3 -3
-50 c-12 -168 62 -236 258 -238 119 0 163 12 246 69 79 54 107 55 112 5 3 -28
-3 -39 -41 -76 -25 -24 -71 -53 -104 -66 -52 -21 -74 -24 -213 -24 -170 0
-206 9 -278 70 -69 58 -77 87 -80 306 -4 215 2 255 45 311 68 88 159 119 328
115 106 -3 126 -6 170 -29z m885 5 c98 -45 155 -136 166 -266 6 -62 4 -81 -10
-102 l-16 -25 -290 0 -290 0 0 -69 c0 -165 70 -224 265 -224 115 0 158 12 246
73 82 55 109 55 109 -2 0 -43 -69 -108 -147 -139 -52 -21 -74 -24 -213 -24
-141 0 -160 2 -205 23 -60 28 -100 64 -128 117 -20 37 -22 58 -25 244 -4 231
2 261 64 325 72 74 146 97 309 92 94 -2 130 -7 165 -23z m3556 -2 c94 -41 148
-120 163 -238 10 -81 5 -123 -17 -140 -12 -10 -88 -13 -299 -13 l-283 0 0 -81
c0 -107 22 -149 97 -186 48 -23 66 -26 161 -26 124 1 165 13 250 73 68 47 99
51 108 15 9 -37 -24 -85 -86 -123 -78 -46 -110 -54 -246 -59 -201 -8 -306 33
-359 141 l-26 53 3 221 3 220 30 44 c67 95 159 129 335 125 94 -2 124 -7 166
-26z m5690 -915 c13 -22 14 -29 2 -53 l-13 -28 -522 -3 c-568 -2 -553 -4 -553
53 0 56 -14 55 550 55 l520 0 16 -24z m-10194 -454 c48 -47 20 -135 -47 -148
-93 -17 -142 107 -62 157 36 23 82 19 109 -9z m1062 6 c14 -20 16 -86 16 -525
0 -443 -2 -503 -16 -517 -32 -32 -58 -15 -69 45 l-7 36 -50 -33 c-71 -48 -146
-68 -233 -61 -119 9 -198 50 -243 127 -26 43 -27 53 -30 210 -5 215 1 259 42
313 41 54 94 83 179 98 103 19 201 2 272 -45 l55 -36 0 183 c0 149 3 187 16
205 19 28 49 28 68 0z m3320 0 c14 -20 16 -86 16 -521 0 -324 -4 -505 -10
-518 -12 -22 -42 -25 -58 -6 -6 6 -13 28 -17 48 l-7 36 -50 -33 c-112 -76
-255 -84 -378 -22 -113 57 -130 102 -130 338 1 189 7 228 47 279 88 110 319
134 452 46 l51 -34 0 182 c0 149 3 187 16 205 19 28 49 28 68 0z m-5983 -48
c148 -28 222 -147 189 -305 -10 -50 -20 -66 -65 -111 l-52 -53 28 -11 c40 -17
96 -77 111 -119 7 -20 13 -74 12 -121 -1 -150 -56 -233 -179 -265 -87 -22
-467 -22 -489 1 -14 14 -16 72 -16 489 0 417 2 475 16 489 13 13 46 16 203 16
104 0 213 -5 242 -10z m910 -261 c46 -16 78 -46 100 -94 23 -49 24 -98 3 -119
-31 -32 -59 -16 -79 45 -19 57 -45 79 -95 79 -44 0 -114 -43 -152 -93 l-28
-36 0 -215 0 -216 99 0 c77 0 103 -4 115 -16 20 -20 20 -38 0 -58 -23 -24
-465 -24 -488 0 -20 20 -20 38 0 58 11 12 36 16 95 16 l79 0 0 280 0 280 -79
0 c-81 0 -111 12 -111 45 0 36 29 45 144 45 126 0 130 -2 142 -64 l7 -40 21
25 c34 40 62 60 103 75 47 16 80 17 124 3z m2349 0 c28 -6 73 -26 101 -45 43
-29 51 -31 55 -16 19 65 49 86 78 56 15 -15 17 -55 14 -438 -3 -402 -4 -423
-24 -466 -45 -99 -137 -144 -294 -144 -101 -1 -175 17 -237 58 -52 34 -68 97
-29 112 8 3 49 -14 91 -37 66 -36 88 -43 149 -47 87 -5 146 10 190 49 39 34
56 91 56 189 l0 58 -53 -29 c-75 -40 -176 -56 -272 -42 -100 14 -160 50 -194
118 -24 46 -26 60 -29 225 -4 204 5 265 50 316 69 78 212 112 348 83z m924
-15 c106 -37 170 -141 171 -277 0 -101 12 -97 -302 -97 l-263 0 0 -73 c0 -91
20 -133 81 -167 40 -23 55 -25 159 -25 106 0 120 2 168 27 29 15 70 41 91 59
60 47 100 20 68 -46 -75 -158 -512 -182 -617 -35 -40 57 -50 112 -50 285 0 95
5 176 11 196 27 81 105 142 209 166 71 16 211 10 274 -13z m431 -20 l20 -41
55 33 c70 43 144 58 240 50 132 -11 217 -72 241 -173 5 -21 9 -151 9 -288 0
-211 -2 -254 -16 -273 -16 -23 -39 -28 -64 -12 -13 8 -16 55 -20 289 -5 264
-6 281 -26 308 -30 41 -70 57 -151 61 -87 5 -129 -7 -210 -61 l-63 -42 0 -261
c0 -239 -2 -264 -18 -284 -23 -29 -67 -22 -76 12 -3 13 -6 175 -6 360 0 297 2
338 16 353 25 24 47 14 69 -31z m-3035 16 c19 -19 20 -33 20 -325 l0 -305 109
0 c86 0 113 -3 125 -16 20 -20 20 -38 0 -58 -13 -14 -55 -16 -299 -16 -244 0
-286 2 -299 16 -20 20 -20 38 0 58 12 13 40 16 140 16 l124 0 0 280 0 280 -93
0 c-95 0 -137 14 -137 45 0 34 41 45 167 45 110 0 125 -2 143 -20z"/>
<path d="M6590 3621 c-67 -14 -121 -54 -149 -108 -7 -14 -11 -87 -11 -198 0
-215 8 -238 99 -283 49 -23 68 -27 146 -27 105 1 138 13 208 75 l47 42 0 203
0 204 -29 21 c-88 62 -218 92 -311 71z"/>
<path d="M5677 3616 c-61 -17 -97 -43 -120 -87 -15 -30 -17 -58 -15 -226 3
-216 7 -229 84 -268 33 -17 59 -20 169 -20 110 0 136 3 169 20 77 39 81 51 84
273 3 192 2 198 -20 232 -36 55 -100 81 -210 86 -61 3 -110 -1 -141 -10z"/>
<path d="M9236 3289 c-92 -22 -133 -73 -123 -155 9 -83 77 -125 203 -125 78 0
146 23 215 71 28 21 29 24 29 100 l0 78 -32 11 c-94 29 -216 38 -292 20z"/>
<path d="M11059 3621 c-44 -9 -116 -50 -147 -83 -22 -24 -23 -31 -23 -232 -1
-114 1 -209 3 -210 22 -20 94 -57 136 -70 39 -13 77 -17 147 -14 85 3 97 6
137 33 23 17 48 42 55 55 9 17 13 85 13 220 0 225 -5 241 -84 280 -50 24 -172
35 -237 21z"/>
<path d="M3016 3613 c-93 -28 -146 -93 -146 -178 l0 -35 255 0 255 0 0 28 c0
51 -30 121 -64 146 -71 54 -199 71 -300 39z"/>
<path d="M3901 3611 c-96 -33 -141 -87 -141 -168 l0 -43 255 0 255 0 0 26 c0
49 -24 107 -57 140 -61 62 -204 82 -312 45z"/>
<path d="M7451 3611 c-29 -10 -69 -35 -89 -54 -31 -32 -36 -43 -40 -96 l-4
-61 256 0 c290 0 269 -8 241 86 -27 91 -96 135 -225 141 -66 3 -97 -1 -139
-16z"/>
<path d="M3886 1924 c-95 -34 -106 -63 -106 -271 0 -149 2 -172 20 -200 26
-43 91 -75 167 -81 83 -6 147 11 211 59 l52 40 0 187 0 187 -48 32 c-26 18
-67 39 -91 48 -54 19 -153 18 -205 -1z"/>
<path d="M7218 1926 c-107 -38 -118 -64 -118 -279 0 -154 1 -166 23 -197 37
-55 88 -75 192 -75 97 0 124 9 198 68 l37 30 0 186 0 186 -49 33 c-27 19 -66
40 -87 47 -49 18 -148 18 -196 1z"/>
<path d="M1290 2025 l0 -165 173 0 c200 0 226 8 264 80 47 88 22 188 -57 228
-41 20 -58 22 -212 22 l-168 0 0 -165z"/>
<path d="M1290 1569 l0 -191 193 4 c138 3 200 7 220 17 45 23 70 74 74 155 6
93 -21 150 -87 184 -41 20 -57 22 -222 22 l-178 0 0 -191z"/>
<path d="M4735 1931 c-42 -11 -66 -25 -95 -56 -25 -26 -25 -30 -28 -213 -2
-168 -1 -191 16 -222 28 -52 72 -73 162 -78 89 -5 162 12 228 55 l42 27 0 196
0 196 -32 31 c-54 51 -95 66 -183 69 -44 2 -93 0 -110 -5z"/>
<path d="M5556 1920 c-83 -32 -116 -77 -116 -155 l0 -45 235 0 235 0 0 23 c0
43 -21 98 -51 132 -56 63 -202 85 -303 45z"/>
</g>
</svg>
